# xmcd
#
# Track frame offsets:
#	180
#	15737
#	25502
#	34706
#	46501
#	59178
#	69565
#	78716
#	87002
#	97539
#	106713
#	121651
#
# Disc length: 1910
#
# Revision: 1
# Processed by: cddbd v1.5.1PL0 Copyright (c) Steve Scherf et al.
# Submitted via: audiograbber 1.81.03
# Normalized: r0:DSETVAR1
#
DISCID=8007740c
DTITLE=Various Artist - Koledy II.
DYEAR=1997
DGENRE=Other
TTITLE0=Roger Whitaker - The twelve days of christmas
TTITLE1=Christmas coral - Joy to the world
TTITLE2=Christmas orchestral - We wish you a merry christmas
TTITLE3=Frank Sinatra - Jingle bells
TTITLE4=Gospel singers - Gou tell it on the mountain
TTITLE5=Bing Crosby - God rest you merry gentlemen
TTITLE6=Bing Crosby - Adeste Fideles
TTITLE7=Nat King Cole - A house with love in
TTITLE8=Christmas coral - Angels we have heard on hegh
TTITLE9=Christmas coral - Hi is born
TTITLE10=Frank Sinatra - Silent night
TTITLE11=Prince - Ave Maria
EXTD=
EXTT0=
EXTT1=
EXTT2=
EXTT3=
EXTT4=
EXTT5=
EXTT6=
EXTT7=
EXTT8=
EXTT9=
EXTT10=
EXTT11=
PLAYORDER=
